<svg width="200" height="200" viewBox="0 0 100 100" xmlns="http://www.w3.org/2000/svg">
  <!-- Bicycle Frame -->
  <path d="M10 50 L50 50 L60 30 L80 30 L90 50 L70 50 L50 70 L30 70 L10 50 Z" stroke="black" stroke-width="2" fill="none"/>

  <!-- Front Wheel -->
  <circle cx="20" cy="70" r="15" stroke="black" stroke-width="2" fill="white"/>
  <line x1="20" y1="70" x2="15" y2="60" stroke="black" stroke-width="1"/>
  <line x1="20" y1="70" x2="25" y2="60" stroke="black" stroke-width="1"/>
  <line x1="20" y1="70" x2="15" y2="80" stroke="black" stroke-width="1"/>
  <line x1="20" y1="70" x2="25" y2="80" stroke="black" stroke-width="1"/>

  <!-- Rear Wheel -->
  <circle cx="80" cy="70" r="15" stroke="black" stroke-width="2" fill="white"/>
  <line x1="80" y1="70" x2="75" y2="60" stroke="black" stroke-width="1"/>
  <line x1="80" y1="70" x2="85" y2="60" stroke="black" stroke-width="1"/>
  <line x1="80" y1="70" x2="75" y2="80" stroke="black" stroke-width="1"/>
  <line x1="80" y1="70" x2="85" y2="80" stroke="black" stroke-width="1"/>

  <!-- Father -->
  <circle cx="60" cy="30" r="5" fill="black"/>
  <line x1="60" y1="35" x2="60" y2="45" stroke="black" stroke-width="1"/>
  <line x1="60" y1="45" x2="55" y2="50" stroke="black" stroke-width="1"/>
  <line x1="60" y1="45" x2="65" y2="50" stroke="black" stroke-width="1"/>

  <!-- Son -->
  <circle cx="40" cy="30" r="3" fill="black"/>
  <line x1="40" y1="33" x2="40" y2="40" stroke="black" stroke-width="1"/>
  <line x1="40" y1="40" x2="37" y2="43" stroke="black" stroke-width="1"/>
  <line x1="40" y1="40" x2="43" y2="43" stroke="black" stroke-width="1"/>

</svg>